<svg width="33" height="33" viewBox="0 0 33 33" fill="none" xmlns="http://www.w3.org/2000/svg">
<path d="M16.2682 0.12207C20.6365 0.12207 21.1816 0.138148 22.8955 0.218539C24.6078 0.298929 25.7734 0.567432 26.7992 0.966168C27.8603 1.37455 28.7542 1.92764 29.6481 2.81997C30.4657 3.6237 31.0983 4.59593 31.5019 5.669C31.899 6.69317 32.1691 7.86044 32.2495 9.57275C32.3251 11.2867 32.346 11.8317 32.346 16.2001C32.346 20.5685 32.3299 21.1136 32.2495 22.8275C32.1691 24.5398 31.899 25.7055 31.5019 26.7312C31.0994 27.8049 30.4667 28.7774 29.6481 29.5803C28.8442 30.3976 27.872 31.0301 26.7992 31.4341C25.775 31.8312 24.6078 32.1013 22.8955 32.1817C21.1816 32.2573 20.6365 32.2782 16.2682 32.2782C11.8999 32.2782 11.3548 32.2621 9.64095 32.1817C7.92866 32.1013 6.76303 31.8312 5.73726 31.4341C4.66379 31.0313 3.69141 30.3986 2.88828 29.5803C2.07058 28.7767 1.43795 27.8044 1.03451 26.7312C0.635784 25.7071 0.367285 24.5398 0.286896 22.8275C0.211331 21.1136 0.19043 20.5685 0.19043 16.2001C0.19043 11.8317 0.206507 11.2867 0.286896 9.57275C0.367285 7.85883 0.635784 6.69478 1.03451 5.669C1.43684 4.59527 2.06961 3.62278 2.88828 2.81997C3.69164 2.00197 4.66396 1.36929 5.73726 0.966168C6.76303 0.567432 7.92706 0.298929 9.64095 0.218539C11.3548 0.142972 11.8999 0.12207 16.2682 0.12207ZM16.2682 8.16109C14.1362 8.16109 12.0914 9.00806 10.5839 10.5157C9.07627 12.0233 8.22932 14.068 8.22932 16.2001C8.22932 18.3322 9.07627 20.377 10.5839 21.8846C12.0914 23.3922 14.1362 24.2391 16.2682 24.2391C18.4003 24.2391 20.445 23.3922 21.9526 21.8846C23.4601 20.377 24.3071 18.3322 24.3071 16.2001C24.3071 14.068 23.4601 12.0233 21.9526 10.5157C20.445 9.00806 18.4003 8.16109 16.2682 8.16109ZM26.7188 7.75914C26.7188 7.22612 26.507 6.71493 26.1301 6.33803C25.7532 5.96113 25.2421 5.74939 24.709 5.74939C24.176 5.74939 23.6648 5.96113 23.288 6.33803C22.9111 6.71493 22.6993 7.22612 22.6993 7.75914C22.6993 8.29216 22.9111 8.80335 23.288 9.18026C23.6648 9.55716 24.176 9.7689 24.709 9.7689C25.2421 9.7689 25.7532 9.55716 26.1301 9.18026C26.507 8.80335 26.7188 8.29216 26.7188 7.75914ZM16.2682 11.3767C17.5474 11.3767 18.7743 11.8849 19.6788 12.7894C20.5834 13.694 21.0915 14.9209 21.0915 16.2001C21.0915 17.4794 20.5834 18.7062 19.6788 19.6108C18.7743 20.5154 17.5474 21.0235 16.2682 21.0235C14.989 21.0235 13.7621 20.5154 12.8576 19.6108C11.953 18.7062 11.4449 17.4794 11.4449 16.2001C11.4449 14.9209 11.953 13.694 12.8576 12.7894C13.7621 11.8849 14.989 11.3767 16.2682 11.3767Z" fill="#02336E"/>
</svg>
