<svg width="37" height="18" viewBox="0 0 37 18" fill="none" xmlns="http://www.w3.org/2000/svg">
<path fill-rule="evenodd" clip-rule="evenodd" d="M35.9084 8.49143C36.1069 8.6592 36.2174 8.88765 36.2155 9.12652C36.2136 9.3654 36.0995 9.59513 35.8982 9.76518L26.7938 17.4593C26.5926 17.6294 26.3208 17.7258 26.0381 17.7274C25.7555 17.729 25.4851 17.6357 25.2866 17.4679C25.0881 17.3002 24.9777 17.0717 24.9796 16.8328C24.9815 16.594 25.0956 16.3642 25.2968 16.1942L32.5697 10.0478L1.98384 10.2238C1.8437 10.2246 1.70513 10.2021 1.57602 10.1575C1.44692 10.1129 1.32981 10.0472 1.23139 9.964C1.13297 9.88082 1.05516 9.78185 1.00241 9.67275C0.94966 9.56364 0.922996 9.44653 0.923943 9.3281C0.92489 9.20967 0.95343 9.09225 1.00793 8.98253C1.06243 8.87281 1.14183 8.77295 1.24159 8.68864C1.34135 8.60433 1.45952 8.53723 1.58935 8.49117C1.71918 8.44511 1.85813 8.42099 1.99826 8.42019L32.5841 8.24677L25.4089 2.18295C25.2103 2.01519 25.0999 1.78674 25.1018 1.54786C25.1037 1.30899 25.2178 1.07925 25.4191 0.909204C25.6203 0.739152 25.8921 0.642711 26.1748 0.641097C26.4574 0.639483 26.7277 0.732827 26.9263 0.900594L35.9084 8.49143Z" fill="white"/>
</svg>
